<?xml version="1.0" encoding="UTF-8"?>
<svg id="Layer_1" data-name="Layer 1" xmlns="http://www.w3.org/2000/svg" viewBox="0 0 464.63 110.28">
  <defs>
    <style>
      .cls-1 {
        fill: #fff;
      }
    </style>
  </defs>
  <path class="cls-1" d="M400.83,32.36c-1.39,6.42-2.61,12.77-4.12,19.21-2.44,11.18-3.36,15.75-4.2,19.7h-19.47l.77-3.56c.91-4.19,1.66-7.59,3.13-14.31,1.64-6.9,2.86-13.82,4.38-20.84h-3.88l2.34-10.85h3.13c.61,0,1.14-.41,1.27-1,.24-1.28.57-2.52.91-3.76.58-3.94,2.43-7.59,5.26-10.4,3.25-3.42,8.4-6.53,18-6.53,2.99.04,5.96.52,8.82,1.4l-1.52,6.26c-.6,2.52-2.75,4.37-5.33,4.59l-.67.05c-1.4,0-4.49.25-5.56,5-.35,1.59-.8,4.43-.8,4.43h7.08l-.79,3.59c-.92,4.09-4.55,7.01-8.75,7.02h0ZM425.57,56.18h0c.42,1.93,1.59,3.61,3.25,4.68,1.04.61,2.23.93,3.44.92,1.64-.02,3.26-.38,4.75-1.06,3.89-1.7,8.44-.17,10.52,3.53-1.83,1.27-4.17,3-6.17,4.08-5.2,2.79-10.98,4.3-16.88,4.41-2.8,0-9.23-.25-14.2-5-2.77-2.84-7.53-9.43-4.92-21.15,1.43-6.33,4.54-12.15,9-16.86,5.7-5.99,13.61-9.4,21.88-9.43,13.21,0,16.54,8.86,17,13.24.5,3.36-.19,7-.76,10.41l-25.33,9.31c-1.22.39-1.92,1.68-1.58,2.92h0ZM429.68,42.9c4.17-1.7,5.09-2.82,5.59-4.91.11-.81.18-1.62.2-2.44.09-2.06-.38-4.59-2.69-4.59-1.42,0-3.61.92-5.34,4-1.49,2.54-2,4.73-2.73,9.81,1.62-.57,3.23-1.21,4.97-1.87h0ZM319.75,29.9c-.89-5.7-5.84-9.15-11.87-9.15-4.09.1-8.05,1.44-11.36,3.83-.82.46-1.6,1.01-2.32,1.62-.57-2.29-2.64-3.9-5-3.89h-12.6c-.62,2.82-1.33,6.43-2.58,12l-7.93,37h19.15s1.37-6.16,1.93-9.29c.59-2.89,1.32-5.77,1.94-8.66,1.18-4.82,2.19-9.51,3.13-14.24.56-2.06,1.07-3.89,2.83-4.82.6-.38,1.29-.6,2-.63.75.02,1.46.31,2,.82,1.56,1.43.74,3.87.62,4.63l-6.9,32.19h18.93l7.69-35.67c.49-1.87.6-3.81.34-5.72v-.02ZM239.35,25.07c-1.07-1.44-3.7-4.27-9.2-4.27s-10.83,3-12.65,4c-.94.59-1.81,1.15-2.84,1.78-1.66-2.51-2.92-4.27-5.91-5.14-1.24-.38-2.53-.55-3.83-.51-6.23-.13-12.39,3.65-14,4.53-.54-1.87-2.25-3.15-4.19-3.15h-16c-.55,0-1,.45-1,1v.05c.21,3.25,2,4.18,1.32,8.18l-6.31,28.56c-1.12,5.14-2.34,11.17-2.34,11.17h18.88s3.36-14.54,3.95-17.38c1.16-5.09,2.29-10.17,3.29-15.22.13-.59.5-3.48,2.7-4.83.57-.37,1.23-.57,1.91-.59.71-.05,1.4.23,1.88.75,1,1,.32,2.39,0,3.87l-2.12,9.9c-.72,3.14-1.39,6.56-2.12,9.84s-2.93,13.54-2.93,13.54l19.36.11s3.31-15.45,4.05-18.85c1.13-4.64,1.9-9.28,2.94-14.12.34-1.68.83-3.5,2.57-4.48.57-.35,1.23-.56,1.9-.59.56,0,1.1.2,1.5.59,1.33,1,.85,2.46.4,4.36l-1.78,8.91c-.71,3.29-1.51,6.52-2.2,9.82-1.06,4.86-3.12,14.36-3.12,14.36h19.19s4-18.71,4.8-22.65c1.18-4.9,2.14-9.85,3.05-14.78.23-3.34.41-6.16-1.15-8.74v-.02h0ZM265.35,18.33c8.57-1.9,11.52-7.33,11.66-9.85.11-1.1-.16-2.2-.76-3.12-1.78-2.35-5.87-2.78-9.94-1.95-3.92.9-7.48,2.92-10.26,5.83-.82,1-1.47,2.13-1.92,3.35-.33,1.37-.03,2.81.82,3.93,2.61,3.39,8.46,2.26,10.39,1.83v-.02h.01ZM370.19,18.33c8.58-1.92,11.52-7.35,11.68-9.87.1-1.1-.17-2.2-.77-3.12-1.77-2.35-5.86-2.78-9.93-1.95-3.92.9-7.48,2.92-10.26,5.83-.82,1.01-1.46,2.15-1.89,3.37-.33,1.37-.03,2.81.82,3.93,2.56,3.39,8.41,2.26,10.34,1.83v-.02h.01ZM376.1,21.61l-10.12.2c-7.3,0-10.35,5.22-11.62,12.42v.12c-1,5.79-6.49,30.63-7.87,36.9h19.05s1.59-7.69,2.43-11.48l6.38-29.73c.79-3.93,1.29-7.04,1.74-8.41v-.02h.01ZM354.44,0l-11,.2c-7.3,0-10.35,5.22-11.62,12.41v.13c-1,5.79-11.07,52.26-12.44,58.53h13.93c3.06,0,5.69-2.18,6.25-5.19.4-2.2,1-4.62,1.34-6.29l10.87-51.37c.72-2.86,1.61-5.67,2.67-8.42ZM270.44,21.63l-11,.2c-7.3,0-10.11,4.55-11.38,11.74,0,0-6.67,31.43-8,37.7h18.75s1.62-7.69,2.46-11.48l6.37-29.73c.73-2.87,1.67-5.69,2.8-8.43h0ZM77.92,21.83c-7.3,0-10.11,4.55-11.38,11.74,0,0-5.94,28-7.76,36.4-.13.58.24,1.15.81,1.28.06.01.12.02.19.02h16.6c.49-.02.9-.37,1-.85.44-2.1,1.61-7.61,2.28-10.63l6.36-29.73c.76-2.87,1.73-5.69,2.88-8.43l-10.98.2ZM161.01,28c1.4,2.71,1.25,5.66,1,9.13-.67,3.76-2.1,10.33-3.1,15.28-1.49,7.27-3.46,16.19-3.46,16.19l-.64,3.06c-4.11,1.8-10.49-4.21-19.12-1.27-3.19,1.09-5.67,2-9.27,2-2.57,0-10-.41-12.59-7.6-.83-2.45-.95-5.08-.36-7.59,1.09-4.36,3.57-8.25,7.06-11.09,3.45-2.84,7.45-4.92,11.75-6.11l10.06-2.76c.2-1.05.16-2.13-.1-3.16-.57-1.82-2.85-2.52-4.94-2.52-.79.06-1.59.16-2.37.3-8.43.93-10.21-5.92-9.56-11.33.08-.73.74-1.26,1.47-1.18.03,0,.07,0,.1.02,1.54.31,4.87.58,12,.15,6.49-.39,13.58.69,18.4,4.14,1.55,1.14,2.81,2.62,3.67,4.34h0ZM141.41,44.78c-2.65,1.1-10.44,3.68-12.31,12.43-1.17,5.22,2.42,6.48,4.28,6.29,1.61.04,3.13-.7,4.08-2,.54-.75.88-1.63,1-2.55l2.95-14.17ZM111.65,33h2.16c2.54,0,4.75-1.77,5.3-4.25l1.34-6.05h-6.54c.28-1.87.61-3.32,1-5.19.56-2.48.76-3.73,1.27-6.26,0,0-1,0-2.24-.06-2.17-.06-4.3.64-6,2-2.73,2.19-6.33,5.14-9.06,7.28-1.24.98-2.76,1.51-4.34,1.53h-.93c-1.03.02-1.93.71-2.2,1.71l-2.56,9.29h4.16l-5.49,24.5c-.28,2.18-2.37,9.5,5.91,12.77,3.3,1.3,11.52,1,16.16,1,.9-.13,1.52-.96,1.39-1.86-.04-.26-.14-.51-.29-.72-1.49-1.9-2.81-3.92-3.94-6.06-1.52-3.59-.28-7.71,0-9.18l4.9-20.45ZM84.27,18.31c8.58-1.92,11.53-7.31,11.68-9.88.11-1.1-.16-2.2-.76-3.12-1.78-2.31-5.87-2.78-9.94-1.94-3.91.9-7.47,2.93-10.24,5.83-.82,1-1.47,2.13-1.91,3.34-.34,1.37-.04,2.81.81,3.93,2.58,3.4,8.43,2.27,10.36,1.84ZM58.43,4.12c-6.23.06-13,2.84-15,13.72,0,0-3.37,16.76-5.1,26.4-.11.47-.59.76-1.06.65-.29-.07-.53-.29-.63-.58-2.87-7.09-4.25-10-5.27-12.66-.87-2.21-7.2-17.75-8.31-20.39-2.62-6.26-7.46-7.43-14.05-7.26H1.11c-.62.01-1.11.52-1.11,1.13,0,.29.12.56.32.77,1.83,2.03,3.36,4.31,4.55,6.78v.09c1.56,3.63,16.14,38.23,18.2,43.17.83,2,1.62,3.85,2.36,5.54,5.91,13.8,25.81,12.74,28.36-1.48l.09-.57c1.52-9.65,10.5-49.99,11.67-55.43l-7.12.12h0ZM457.76,5.12c-3.72.07-6.68,3.15-6.61,6.87.07,3.72,3.15,6.68,6.87,6.61,3.69-.07,6.63-3.09,6.61-6.78-.06-3.74-3.13-6.72-6.87-6.66v-.04ZM457.76,6.47c2.87.02,5.17,2.36,5.15,5.23v.16c.1,2.83-2.12,5.21-4.95,5.31h-.16c-2.87.02-5.21-2.28-5.23-5.15v-.2c-.06-2.88,2.23-5.25,5.11-5.31h.08v-.04h0ZM456.7,12.63h.74c.85,0,1.26.33,1.38,1.07.1.57.28,1.12.54,1.63h1.65c-.26-.52-.43-1.09-.49-1.67-.08-.73-.55-1.36-1.23-1.64v-.02c.76-.14,1.33-.78,1.39-1.55.01-.56-.24-1.09-.67-1.45-.71-.39-1.52-.56-2.33-.49-.86-.01-1.72.05-2.57.2v6.7h1.55l.04-2.78ZM456.7,9.63c.28-.06.57-.09.86-.08,1,0,1.43.41,1.43,1s-.7,1-1.55,1h-.74v-1.92ZM96.35,103.47c1.56.98,3.37,1.46,5.21,1.4,4.4,0,7.57-2.44,7.57-6.38,0-2.38-1.43-3.95-3.81-5.21-1.84-1-2.94-1.83-2.94-3.17s1.22-2.56,3.37-2.56c1.24-.01,2.46.29,3.55.87l1.11-2.82c-1.34-.71-2.85-1.05-4.37-1-4,0-7.22,2.36-7.22,6.11,0,2.33,1.72,3.9,4,5.12,1.92,1,2.77,1.9,2.77,3.18,0,1.89-1.75,2.91-3.64,2.91-1.57.01-3.1-.42-4.43-1.25l-1.17,2.8h0ZM122.35,90.37l-1.34,6.9c-.55,2.94-2.39,4.81-4,4.81-1.34,0-1.81-.85-1.81-2,.01-.66.09-1.31.24-1.95l1.57-7.76h-3.37l-1.52,7.95c-.18.83-.28,1.68-.29,2.53,0,2.91,1.63,4,3.7,4,1.99-.1,3.82-1.13,4.92-2.79h.06l-.29,2.47h3c.18-1.22.38-2.71.7-4.4l1.87-9.78s-3.44.02-3.44.02ZM139.12,104.55c-.02-2.17.18-4.33.58-6.46l1.46-7.4c-1.39-.42-2.83-.63-4.28-.64-5.36-.16-9.84,4.05-10,9.41v.59c0,2.85,1.66,4.83,4.2,4.83,1.8,0,3.66-.9,5.06-3.52h.09c-.12,1.22-.23,2.36-.26,3.2h3.15ZM136.62,96.53c-.67,3.61-2.59,5.59-4.17,5.59s-2-1.22-2-2.7c0-3.24,2.41-6.76,5.56-6.76.47-.01.94.04,1.39.15l-.78,3.72ZM148.53,90.36l2.41,14.18h3.41l7.89-14.18h-3.76l-3.47,7.12c-.78,1.69-1.19,2.71-1.54,3.61h-.09c-.06-.93-.23-2-.41-3.69l-.9-7-3.54-.04h0ZM165.24,104.54l2.71-14.18h-3.38l-2.71,14.18h3.38ZM166.84,88.32c1.1.06,2.04-.79,2.1-1.9v-.1c.04-.97-.71-1.79-1.68-1.84h-.13c-1.1,0-2,.89-2,2v.07c-.07.93.63,1.73,1.56,1.8h.15v-.03ZM181.66,83.87l-1.25,6.58c-.69-.27-1.43-.41-2.18-.41-5.22,0-8.85,4.57-8.85,9.55,0,3.2,1.77,5.27,4.3,5.27,2.01-.03,3.86-1.11,4.87-2.85h.05l-.29,2.53h3.12c.11-1.68.32-3.35.64-5l3-15.63-3.41-.04ZM179.07,97.52c-.58,2.94-2.39,4.6-3.9,4.6s-2.27-1.34-2.27-3c0-3.18,2.15-6.41,5.06-6.41.71-.03,1.41.16,2,.55,0,0-.89,4.26-.89,4.26ZM197.41,104.52c0-2.17.18-4.33.59-6.46l1.45-7.4c-1.39-.42-2.83-.63-4.28-.64-5.35-.17-9.83,4.04-10,9.39v.61c0,2.85,1.66,4.83,4.19,4.83,1.8,0,3.67-.9,5.06-3.52h.09c-.11,1.22-.23,2.36-.26,3.2h3.16ZM194.91,96.5c-.67,3.61-2.59,5.59-4.16,5.59s-2-1.22-2-2.7c0-3.24,2.42-6.76,5.56-6.76.47,0,.94.04,1.4.15l-.8,3.72h0ZM216.81,101.22c-1.21.62-2.54.94-3.9.93-1.17.1-2.29-.46-2.92-1.45-.3-.62-.43-1.31-.37-2,5.47.11,9.28-1,9.28-4.69,0-2.36-1.77-4-4.57-4-4.89,0-8,4.66-8,8.94,0,3.46,1.89,5.88,5.82,5.88,1.73,0,3.44-.38,5-1.14l-.34-2.47h0ZM215.7,94.03c0,1.69-2.24,2.18-5.73,2.12.4-1.71,1.8-3.61,3.93-3.61,1.07,0,1.8.56,1.8,1.46v.03ZM223.24,104.51l1.23-6.73c.52-2.88,2.32-5,3.9-5,1.36,0,1.68,1,1.68,2,0,.56-.06,1.11-.17,1.66l-1.51,8h3.26l1.28-6.78c.55-3,2.27-5,3.81-5,1.25,0,1.75.81,1.75,2-.03.6-.09,1.21-.2,1.8l-1.49,7.92h3.29l1.57-8.3c.13-.8.21-1.6.24-2.41,0-2.54-1.52-3.79-3.47-3.79-2.06.04-3.95,1.14-5,2.91-.14-1.68-1.62-2.93-3.31-2.79h-.09c-2,.04-3.85,1.1-4.91,2.8h0l.29-2.48h-2.94c-.15,1.22-.38,2.71-.7,4.4l-1.81,9.78h3.3ZM260.01,101.23c-1.21.62-2.54.94-3.9.93-1.16.1-2.29-.46-2.91-1.45-.3-.62-.43-1.31-.38-2,5.47.11,9.28-1,9.28-4.69,0-2.36-1.77-4-4.57-4-4.89,0-8,4.66-8,8.94,0,3.46,1.89,5.88,5.82,5.88,1.73,0,3.44-.38,5-1.14l-.34-2.47ZM258.9,94.04c0,1.69-2.24,2.18-5.73,2.12.4-1.71,1.8-3.61,3.93-3.61,1.07,0,1.8.56,1.8,1.46v.03ZM274.16,110.28l3.64-19.38c-1.58-.56-3.24-.85-4.92-.88-6.09,0-9.38,4.92-9.38,9.55,0,3,1.6,5.27,4.31,5.27,1.88-.03,3.62-1.01,4.6-2.62h.06l-1.72,8.06h3.41ZM273.23,97.36c-.53,2.71-2.3,4.74-4.14,4.74-1.22,0-2.06-1.07-2.06-2.94,0-3.26,2.21-6.49,5.06-6.49.67-.04,1.34.1,1.95.38,0,0-.81,4.31-.81,4.31ZM290.41,90.36l-1.31,6.9c-.56,2.94-2.39,4.81-4,4.81-1.34,0-1.81-.85-1.81-2,.01-.66.09-1.31.23-1.95l1.49-7.78h-3.38l-1.51,7.95c-.18.83-.28,1.68-.29,2.53,0,2.91,1.63,4,3.7,4,1.99-.1,3.82-1.13,4.92-2.79h.05l-.29,2.47h3c.18-1.22.38-2.71.7-4.4l1.86-9.78-3.36.04ZM298.36,104.54l2.65-14.2h-3.37l-2.63,14.18,3.35.02ZM299.96,88.32c1.1.05,2.04-.8,2.09-1.91v-.09c.05-.97-.69-1.79-1.66-1.84h-.14c-1.1,0-2,.89-2,2v.07c-.06.93.64,1.74,1.58,1.8h.14v-.03h0ZM305.63,104.54l3.93-20.67h-3.38l-4,20.67h3.45ZM312.85,104.54l2.7-14.18h-3.37l-2.71,14.18h3.38,0ZM315.35,84.33l-2.79,4.31h2.53l3.84-4.31h-3.58ZM320.56,83.87l-3,14.73c-.16.81-.24,1.63-.26,2.45,0,2.56,1.75,3.81,4.72,3.81,6.05,0,9.14-5.33,9.14-9.81,0-2.53-1.25-5-4.28-5-1.85.01-3.58.91-4.66,2.42h-.06l1.84-8.62-3.44.02h0ZM321.26,97.47c.58-2.86,2.39-4.66,4.14-4.66,1.57,0,2.24,1.31,2.24,2.88,0,2.77-1.95,6.58-4.92,6.58-.91.13-1.75-.5-1.88-1.4-.02-.13-.02-.27,0-.41-.02-.56.03-1.13.14-1.68l.29-1.31h-.01ZM336,104.52l1-5.71c.56-3,2.1-5.47,4.52-5.47.21,0,.43.02.64.06l.67-3.32c-.24-.03-.49-.05-.73-.06-1.95,0-3.49,1.4-4.46,3.32h-.08c.14-1.05.23-2,.32-3h-2.88c-.18,1.28-.35,3.44-.73,5.45l-1.66,8.73h3.39,0ZM346.1,104.52l2.71-14.18h-3.38l-2.71,14.18h3.38ZM347.7,88.3c1.1.06,2.04-.79,2.1-1.9v-.1c.04-.97-.71-1.79-1.68-1.84h-.13c-1.1,0-2,.89-2,2v.07c-.06.93.64,1.74,1.58,1.8h.14v-.03s-.01,0-.01,0ZM358.49,90.02c-4.83,0-8.18,4.17-8.18,9-.19,3.04,2.11,5.65,5.15,5.85.22.01.43.01.65,0,4.83,0,8.21-4.13,8.21-8.94.2-3.06-2.12-5.71-5.19-5.91-.23-.01-.46-.02-.69,0h.05ZM358.09,92.64c2.06,0,2.7,1.81,2.7,3.26,0,2.83-1.69,6.32-4.22,6.32-1.72,0-2.76-1.37-2.76-3.32-.05-2.65,1.52-6.26,4.23-6.26h.05ZM367.32,104.81c1.3.03,2.38-1,2.41-2.31v-.13c.09-1.1-.73-2.07-1.83-2.15h-.23c-1.33,0-2.4,1.1-2.39,2.43v.08c-.05,1.1.8,2.04,1.91,2.09h.13Z"/>
</svg>